<svg version="1" xmlns="http://www.w3.org/2000/svg" width="2357.333" height="2357.333" viewBox="0 0 1768.000000 1768.000000"><path d="M291 496c-1.4.3-2.6 1.1-2.7 1.7-.5 2.4-10.2 39.9-10.7 41.3-.3.8-.8 2.6-1 4-.3 1.4-1.9 7.7-3.6 14-1.7 6.3-3.3 12.4-3.5 13.5-.9 3.8-1.4 6-2.4 9.5-1.8 6.5-6.3 24.5-6.7 26.9-.3 1.4-.7 2.8-1 3.3-.3.4-.7 1.6-.9 2.5-.1 1-1.1 4.7-2 8.3-.9 3.6-1.9 7.2-2 8-.2.8-.4 1.5-.6 1.5-.1 0-.3.9-.5 2-.1 1.1-.5 2.9-.8 4-.4 1.1-1.2 4.4-1.8 7.2-.7 2.9-1.6 5.3-2.1 5.3-.4 0-.6.4-.3.8.3.5-.2 3.3-1 6.3s-1.7 6.5-2 7.9c-.3 1.4-.8 3.4-1.1 4.5-.4 1.1-.8 2.4-.9 3-.1.5-.7 3-1.4 5.5s-1.4 5.3-1.6 6.2c-.7 2.9-1.1 4.8-3.9 15.3-1.4 5.5-2.8 11.1-3.1 12.5-.2 1.4-.9 3.6-1.4 5-.5 1.4-1.2 3.6-1.4 5-.3 1.4-1.7 7-3.2 12.5-1.4 5.5-2.7 10.7-2.9 11.5-.2.8-2.2 8.7-4.5 17.5s-4.3 16.7-4.5 17.5c-.2.8-2.4 9.4-5 19s-4.8 18.4-5 19.5c-.2 1.7-1.5 6.5-3.1 12.3-.2.7-.4 1.4-.4 1.7-.1.2-1.4 5.1-3 10.8-2.7 10-2.9 13.2-1.6 17.5.4 1.1.8 2.9 1 3.9.2 1 1 3.8 1.7 6.3s1.3 4.9 1.5 5.5c.1.5.7 3 1.4 5.5s1.4 5.2 1.6 6c.1.8 1.4 5.5 2.8 10.5 2.5 9.5 7.6 28.3 8 30 1.4 5.6 2 7.6 3.2 11.5.7 2.5 1.5 5.6 1.8 7 .2 1.4 1.3 5.7 2.4 9.5 1.2 3.9 2.3 8.1 2.6 9.5.3 1.4 1 4.3 1.6 6.5 1 3.5 1.8 6.6 3.6 13.5.2.8 1.5 5.8 2.9 11 1.5 5.2 3 11.1 3.5 13 .5 1.9 1.4 5.3 2 7.5.6 2.2 1.2 4.8 1.5 5.8.2.9 1.5 5.9 2.9 11 3.5 12.5 9.6 35.6 10 37.6.2.9.6 2.3.9 3.1.3.8 1.4 5.1 2.6 9.5 2.1 8.5 4.4 17 8.6 33 1.5 5.5 2.9 11.1 3.2 12.4.2 1.4.6 2.8.9 3.3.3.4.7 1.6.9 2.5.4 2.1 6 23.5 8.2 31.3.8 3 2.2 8.2 3 11.5.8 3.3 1.7 6.7 2.1 7.5.3.8.6 1.9.6 2.5.1.6 15.6 1.1 43.9 1.2 41 .2 43.8.1 43.3-1.5-.3-.9-1.9-6.9-3.6-13.2-1.7-6.3-3.3-12.1-3.5-12.8-.3-.7-.5-1.4-.5-1.7-.1-.3-.8-2.8-1.6-5.7-.9-2.8-1.7-5.9-1.9-6.7-.2-.9-1.6-5.9-3-11.1-1.5-5.2-3.6-12.9-4.7-17s-3.3-12.2-4.9-18c-1.7-5.8-3.2-11.3-3.4-12.2-1.2-5.3-3.8-14.5-4.6-16-.5-1-.9-2.4-.9-3.2 0-1.3-9-34.8-13.5-50.1-1.4-5-3.6-13.1-4.1-15-.1-.6-1.2-4.4-2.4-8.5s-2.3-8.5-2.5-9.6c-.2-1.2-.8-3-1.4-4.1-.5-1.1-.8-2.3-.5-2.6.3-.3.1-1.4-.5-2.5-.5-1-1.2-3-1.5-4.3-.3-1.3-1-4.2-1.6-6.4-.6-2.2-1.4-5.1-1.7-6.5-.2-1.4-.7-3.2-1-4-.3-.8-.7-2-.9-2.5-.1-.6-.9-3.5-1.7-6.5-3.3-11.6-5.5-20-9.1-33.5-2.1-7.7-4-14.7-4.3-15.5-.3-.8-.7-2-.8-2.5-.2-.6-1.9-7.1-4-14.5-2-7.4-4.1-15.1-4.6-17-.5-1.9-1.2-4.4-1.5-5.5-1-3.4-1.2-6-.5-7 .3-.6.6-1.5.8-2 .1-.6.4-2 .7-3.3.3-1.2.9-3.2 1.2-4.5.3-1.2.7-2.9.9-3.7.2-.8.4-1.5.5-1.5.1 0 .3-.7.5-1.5 1.4-5.4 5.5-21.1 6.4-23.8.5-1.8.9-3.3.9-3.5-.1-.1.4-1.8 1-3.7.6-1.9 1.3-4.6 1.6-6 .3-1.4 2.8-10.8 5.6-21 2.7-10.2 5.2-19.4 5.5-20.5 1.2-5.8 8.7-33.4 9.7-35.8l1-2.7h105.6l.4 2.3c.2 1.2.3 84.7.3 185.4-.1 164.9.1 183.3 1.5 183.4h97l2.5-.1V719h65.6c57.5 0 65.8-.2 66.3-1.5.3-.8.1-1.5-.4-1.5s-.5-1.3 0-3c.5-1.9.5-3-.1-3s-.8-.4-.5-.8c.5-.9 1-13.8.6-15.7-.1-.6-.1-1.5 0-2 .3-1.2.3-37.6 0-39-.1-.6-.1-1.5 0-2 .3-1.5 0-11.8-.3-12.2-.2-.1-1.4-.3-2.8-.3-5.5-.1-24.5-.2-25.9-.1h-6.5c-2.7-.1-5.7-.1-6.5 0-.8 0-3.3.1-5.5 0H591c-5.8-.1-11.2-.1-12 0h-6.5c-2.7-.1-5.7-.1-6.5 0-.8 0-3.3.1-5.5 0H543c-5.8-.1-11.2-.1-12 0h-6.5c-2.7-.1-5.7-.1-6.5 0-.8 0-3.3.1-5.5 0H495c-5.8-.1-11.2-.1-12 0h-6.5c-2.7-.1-5.7-.1-6.5 0-.8 0-3.3.1-5.5 0H447c-5.8-.1-11.2-.1-12 0h-6.5c-2.7-.1-5.7-.1-6.5 0-.8 0-3.3.1-5.5 0H411c-5.6.2-22.5-.1-22.8-.4-.2-.2-1.6 0-3.1.5-1.6.4-3.4.4-4.1 0-.7-.5-2.3-.5-3.5 0-1.1.4-2.8.4-3.7-.1-.9-.5-1.9-.6-2.1-.2-.3.5-4.2.6-8.6.3-4.5-.3-8.9-.3-9.8.1-.8.3-3.8.2-6.5-.1-2.7-.4-5.1-.3-5.4.2-.3.5-1 .6-1.5.2-1.2-.7-.7-3.4 2-12.9 1.1-3.9 2.2-8.1 2.5-9.5.3-1.4 1.5-5.9 2.6-10 1.2-4.1 2.3-8.2 2.5-9 .2-.8.4-1.5.5-1.5.1 0 .3-.7.5-1.5.1-.8 1.5-6 3-11.5 1.4-5.5 2.8-10.7 3-11.5.2-.9 1.9-7.4 3.8-14.5 4.9-17.6 6-21.8 6.3-23 .1-.6.7-3 1.4-5.5s1.4-5.2 1.5-6c.2-.8.4-1.5.5-1.5.1 0 .4-.9 1.4-5 .2-1.1 1.3-5.3 2.4-9.3 1.2-3.9 1.8-7.2 1.5-7.2-.3 0 0-.6.6-1.4.9-1.1.6-1.5-1.4-1.8-1.4-.3-2.5-.2-2.5.2s-1.6.4-3.5 0-3.5-.4-3.5.1-1.1.4-2.5-.1c-1.5-.6-2.7-.6-3 0-.3.5-1.5.6-2.7.1-1.2-.4-3.7-.5-5.5-.1-1.7.4-3.4.5-3.7.2-.7-.6-7.6-.9-7.6-.2 0 .3-1.8.5-4 .5s-4-.2-4-.5-1.6-.5-3.5-.5-3.5.3-3.5.7c0 .4-1 .4-2.2-.1-1.3-.5-3.2-.5-4.3-.1-1.1.4-2.4.5-2.9.2-1.2-.7-7.6-.9-7.6-.2 0 .3-1.8.5-4 .5s-4-.3-4-.7c0-.4-1.3-.3-2.9.2-1.7.4-3.1.5-3.3.1-.2-.4-1.4-.4-2.8-.1zM1391.7 495.6c-.2.3.2 2.6 1 5.2s1.6 5.6 1.8 6.7c.4 2.3 4.5 17.6 6.8 25.2.9 2.9 1.3 5.3 1 5.3-.3 0 0 .7.7 1.5s1 1.5.7 1.5c-.2 0 .6 3.7 2 8.2 1.3 4.6 2.6 9.4 2.9 10.6.3 1.3 1.2 4.9 2 8 .9 3.2 2.4 8.8 3.4 12.7 1 3.8 2.3 8.2 2.9 9.7.6 1.6.9 2.8.6 2.8-.2 0 .2 1.8 1 4s1.2 4 .8 4c-.3 0 0 .7.7 1.5s1 1.5.7 1.5c-.3 0-.1 1.5.5 3.2.5 1.8 1.4 4.9 1.8 6.8.5 1.9 1.6 6.2 2.5 9.5.9 3.3 1.9 6.7 2.1 7.5.3 1.3 8 29.6 8.8 32.5.2.5.6 2.3 1 4 2.4 9.3 9.9 37.2 10.3 38.5.4.8.7 1.9.8 2.5.2.5 1 3.9 2 7.5l2 8c.5 2.1 8.2 30.7 9.6 35.5.7 2.2 1.3 4.7 1.5 5.5.5 3 1.4 6.5 2.3 9 .5 1.4 2.4 8.1 4.1 15 1.7 6.9 3.5 13.6 4 15 .4 1.4 1.5 5.2 2.4 8.5.8 3.3 2.7 10.1 4.1 15.2 1.4 5 2.5 9.9 2.5 10.8 0 .8.4 2.3.9 3.3.6.9 1.6 4.4 2.4 7.8 1.5 6.1 1.5 6.2-2.9 23-2.5 9.3-4.6 17.8-4.8 18.9-.2 1.1-.6 2.7-.9 3.5-.3.8-1.1 3.7-1.7 6.5-1.6 6.9-1.6 6.9-4 16.5-1.2 4.7-2.3 9.2-2.5 10-.2.8-.4 1.5-.5 1.5-.2 0-.5 1.2-1.3 5-.3 1.1-1.1 4-1.8 6.5s-1.4 5.4-1.5 6.5c-.1 1.1-1 4.7-1.9 8-.9 3.3-1.9 6.9-2.2 8-.2 1.1-.5 2.4-.7 3-.1.5-.6 2.6-1 4.5-.5 1.9-1.1 3.9-1.4 4.5-.3.5-.7 1.8-.8 3-.1 1.1-2.1 9.2-4.5 18-2.3 8.8-4.2 16.5-4.2 17 0 .7-4.3 1.1-11.8 1-10.7 0-13.3-.4-13.5-2.3-.3-3.6-1.8-10-2.7-11-.5-.7-.7-1.5-.5-1.8.3-.3-.3-3.7-1.3-7.7s-2.1-8.3-2.4-9.7c-1-5.1-1.4-6.7-3.8-16.5-1.4-5.5-3.5-14.5-4.7-20-1.2-5.5-2.4-10.7-2.7-11.5-.3-.8-.8-2.6-1-3.9-.2-1.4-1.1-4.9-1.8-7.9-.8-3-1.2-5.9-.9-6.3.3-.5 0-.9-.5-.9-.6 0-1.1-.9-1.1-2.1 0-1.1-.9-5.6-2-9.8-1.1-4.3-2.2-8.9-2.4-10.2-.3-1.3-.5-2.4-.6-2.4-.1 0-.4-1.1-.6-2.5-.2-1.4-1.1-5.2-1.9-8.5-1.5-6.3-5.4-22.7-6.1-25.8-.2-.9-.6-2.5-.8-3.5-.2-.9-1.6-6.9-3.2-13.2-1.5-6.3-2.8-12-2.9-12.5-.1-.6-.4-2.1-.8-3.5-1.2-4.2-9.9-41.3-10.3-44-.3-1.4-1.4-6.3-2.7-10.9l-2.2-8.4h-96l.3 2.9c.2 1.6.7 4 1.2 5.4.4 1.4 1.8 6.8 3 12s2.6 10.8 3.1 12.5c.7 2.5 4.4 17.6 5.4 22.5l4 16c2 8 3.8 15.2 4 16.1.2.8 1 4.4 1.9 8 .9 3.5 1.8 7.3 2.1 8.4.2 1.1.9 3.8 1.5 6s1.3 5.1 1.6 6.5c.3 1.4 2.8 11.5 5.5 22.5s5.2 21.2 5.4 22.7c.3 1.5 1 3.9 1.5 5.3s1.2 4 1.5 5.8c.3 1.8 1.9 8.3 3.5 14.5 1.7 6.2 3 12.1 3 13.2 0 1.1.4 2.8.9 3.8.8 1.4 4 13.9 5.6 21.7.2 1.1 1 4.1 1.8 6.7.8 2.6 1.2 4.9.9 5.2-.2.3.1 1.2.8 2.1.7.8 1 1.5.8 1.5-.3 0 .1 2.6.9 5.7.8 3.2 1.6 6.5 1.7 7.3.1.9.6 2.1 1 2.8.4.7.5 1.6.2 1.9-.3.3-.1 1.3.4 2.3.8 1.5 3.2 10.8 4.4 17.5.2 1.1 1.3 5.4 2.4 9.5 1.2 4.1 2.3 8.6 2.6 10 .7 3.4 6.4 26.8 7.4 30.5.6 2.2 1.6 3.1 4 3.6 1.8.4 3.2.3 3.2-.1s1.6-.4 3.4 0c1.9.4 3.8.5 4.1.2.5-.5 6.9-.7 9-.2.6.1 1.5.1 2 0 2.3-.4 9.4-.2 10.3.4.6.3 1.3.2 1.7-.3.3-.7 1.5-.7 3-.1 1.4.5 2.7.5 3 0 .3-.5 1.8-.5 3.4 0 1.6.4 3.2.6 3.5.2.4-.3 2.5-.5 4.9-.4 7.1.3 21.1.1 21.6-.3.2-.2 1.2 0 2.2.5 1.6.9 1.6 1.3.4 4.7-1.8 4.8-6.4 19.2-7 21.6-.5 2-15.3 48.4-16.2 50.7-.3.8-.7 1.9-.8 2.5-.5 2.1-3.7 12.2-5 15.6-.8 2-1.1 4-.8 4.3.4.4 18.8.6 41 .6 22.2-.1 40.8.2 41.3.5s1.1.1 1.5-.5c.4-.6 1-.8 1.5-.5.9.5 2.1-1.9 2.5-5 .2-1.1 1.1-4.7 2-8 1-3.3 1.8-6.5 2-7 .8-3.6 1.9-7.6 3.1-11.4.8-2.4 1.2-4.6 1-4.9-.3-.2-.1-1.2.4-2.2.5-.9 2.3-6.8 3.9-13.1 3.5-13.5 11-41.8 11.6-43.9.6-2 2.5-9.1 2.9-11 2.5-10.1 3.8-14.9 4.6-17 .5-1.4 1.2-3.6 1.4-5 .3-1.4 1.5-5.9 2.6-10s2.3-8.6 2.6-10c.3-1.4 1.3-5.4 2.3-9 1.1-3.6 2.2-7.9 2.7-9.5.4-1.7.8-3.5 1-4 .2-.6.5-1.9.8-3 .3-1.1.9-3.5 1.5-5.4.6-1.8 1-3.6.9-4-.1-.3.1-1.3.4-2.1 1.5-4.3 2.9-9.1 4.2-14.5.8-3.3 3.7-14.6 6.6-25 2.8-10.5 6.9-25.8 9-34 2.2-8.3 5-18.4 6.1-22.5 1.1-4.1 2.2-8.2 2.4-9 .7-3.2 6.7-25.5 7-26.1.2-.3.7-2.1 1-4 .3-1.9 1.3-5.7 2-8.4.8-2.8 1.3-5.9 1-7-.2-1.1-1.6-6.5-3.1-12-1.4-5.5-2.7-10.7-2.9-11.5-.2-.8-2-7.8-4-15.5-2.1-7.7-3.9-14.8-4-15.7-.2-.9-1.3-5-2.4-9-1.1-4-2.2-8.4-2.5-9.8-.9-4.3-2.3-9.4-3.4-12-.5-1.4-1-2.8-1-3.3 0-.7-.6-3.5-1.7-8.2-.2-1.1-.9-3.8-1.5-6s-1.2-4.8-1.5-5.8c-.2-1-1.4-5.2-2.5-9.5-1.2-4.2-2.4-8.8-2.7-10.2-.9-4.3-1.1-5.5-1.3-5.5-.1 0-.3-.7-.5-1.5s-3.3-13-7-27c-3.6-14-6.7-26.2-6.9-27-.2-.8-1.2-4.4-2.1-8-.9-3.6-1.9-7.4-2.2-8.5-.7-3.3-1.1-5-1.3-5.5-.1-.3-.2-.9-.1-1.3s-.3-1.6-.8-2.6c-.6-1-1.3-3.1-1.6-4.7-.3-1.6-1.6-7.2-3-12.4s-2.7-10.2-2.9-11c-.2-.8-1.4-5.3-2.6-10-1.2-4.7-2.3-9.2-2.4-10-.2-.8-.6-2.2-.9-3-.6-1.6-2.5-9.1-3.3-13-.3-1.4-1.7-6.5-3-11.5-1.4-4.9-2.7-10.1-2.9-11.5-.2-1.4-1.1-4.7-1.9-7.4-.9-2.6-1.3-5.2-1-5.7.3-.5.1-.9-.4-.9-.6 0-1.2-1.5-1.5-3.3-.2-1.7-2.1-9.5-4.2-17.2-2-7.7-3.8-14.5-3.9-15-1-4.8-2.2-6.1-5.1-5.5-2.8.5-9.5.4-9.5-.2 0-.4-1.3-.3-3 .2s-3 .5-3 0-1.3-.5-3 0c-1.6.5-3 .6-3 .2 0-.4-1.3-.7-3-.7-1.6 0-3 .4-3 .8 0 .5-.5.5-1 .2-1.4-.9-10.3-1-11.6-.2-.6.3-1.6.2-2.4-.3-.7-.4-2.4-.4-3.7.1-1.2.5-2.3.5-2.3 0 0-.4-2-.5-4.5-.1s-4.5.4-4.5.1c0-.7-10.7-.4-12.7.4-.7.2-1.3 0-1.3-.5s-1.3-.5-3 0c-2.1.6-3 .5-3-.3s-.3-.8-1.2.1c-.7.7-1.7.8-2.8.2-1-.5-2-.7-2.3-.4zM722.4 637.9c-.2.2-2.9.3-5.9.2l-5.5-.2V719h98v-80.9l-25.5-.3c-14.1-.2-26.3 0-27.2.3-.9.3-3.3.3-5.3-.1s-4.4-.4-5.3-.1c-.9.3-6.4.4-12.2.1-5.9-.3-10.9-.3-11.1-.1zM1073 751c-3 .4-7.7 1.1-10.5 1.5-2.7.3-7.3 1.3-10.1 2-2.8.8-6.2 1.7-7.5 1.9-1.3.3-2.5.5-2.6.7-.2.1-.7.3-1.3.4-.5.1-1.1.3-1.2.5-.2.1-1.1.3-2.1.5-2.5.5-12.1 3.9-12.7 4.5-.3.3-.9.6-1.5.7-.5.1-3.2 1.2-6 2.4-2.7 1.2-5.2 2.3-5.5 2.4-1.2.3-8.7 4.3-11.2 5.9-2.5 1.6-2.8 1.7-3.4.2-.3-.9-.4-3.2-.2-5.1.2-1.9 0-3.5-.4-3.5-.5 0-.4-.9.2-2 .7-1.3.7-2 .1-2s-.8-.7-.4-1.6c.3-.9.1-1.9-.5-2.3-1.2-.7-94.5-.7-95.8.1-1.4.9-1 330.8.3 331.6.9.5 93.5.8 96.4.3.4-.1.7-54.7.7-121.4 0-66.6.1-122.6.1-124.4.1-2.9.5-3.3 3.9-4 4.5-.9 4.3-.8 6.7-1.7 4.4-1.7 5-1.9 5.5-2.1.9-.2 6.4-1.5 8.8-2 1.2-.3 3.2-.7 4.5-1 1.2-.3 3.7-.8 5.6-1.1 1.8-.3 4.3-.8 5.5-1 3.1-.6 18.1-1.7 25.6-1.8 6.5-.1 14 .9 21.5 2.8 3.4.8 8.5 3.1 8.5 3.8 0 .4.6.8 1.4.8 1.9 0 11.6 9.6 11.6 11.5 0 .8.4 1.5.9 1.5.4 0 2 3.3 3.4 7.2 3.9 10.9 5 15.6 6.3 27.3.3 3.3.8 6.9 1 8 .3 1.1.5 46 .5 99.7l.1 97.8 2.2.1c11.7.3 94.6 0 95.2-.4 1-.5.9-194.4 0-206.2-1.5-18.9-2-23.2-4.1-34-.8-3.9-1.6-8.1-1.9-9.5-.2-1.4-1-4.5-1.7-7s-1.3-5-1.5-5.5c-.9-4.1-7.4-20.2-10.2-25.5-6.9-12.9-12.1-19.6-21.3-27.5-12.4-10.7-32.2-18.9-52.4-21.9-2.3-.4-5.2-.9-6.5-1.2-4.1-.9-38.1-1.2-44-.4zM712.7 757.8c-1.6.3-1.7 11.7-1.7 166.2 0 131.7.3 165.9 1.3 166.2 1 .3 93.5.2 96-.1.4-.1.7-74.8.7-166.1 0-132.1-.3-166-1.2-166.1-3.8-.3-93.7-.3-95.1-.1zM448.4 1194.5c-18.9 4.3-26.2 17.3-26.4 47-.1 12 1 25.9 2 27.2.2.2.3.6.4 1 3.1 13.4 11.2 21.5 24.1 24.4 5.5 1.2 21.5 1.5 28.5.5 2.5-.3 6.5-.9 9-1.2 2.5-.3 5-.6 5.7-.7.9 0 1.2-4.6.4-8.9-.1-.6-3.5-.4-11.1.7-1.9.3-8.9.5-15.5.6-9.9.1-12.8-.3-16.6-1.9-10.3-4.4-14.1-14.4-14.2-37.2-.1-27.2 4.7-38.5 18.1-41.8 5.7-1.4 34.5-.4 37.3 1.4 1.1.6 1.9-1.1 2.4-5 .3-1.9 0-3.8-.5-4.1-4.1-2.5-35.1-4-43.6-2zM826.9 1194.7c-3 .7-6 1.5-6.7 1.6-.7.2-1.8.9-2.4 1.5-.7.7-1.7 1.2-2.3 1.2-1.2 0-5.8 4.1-9.1 8.2-2.1 2.5-6.3 13.1-7 17.8-4.3 26.8-.6 49.4 9.9 60.5 2.8 3 10.5 7.3 14.7 8.2 10.9 2.4 27.7 2.1 36.8-.6 12.3-3.7 20.8-14.8 22.8-29.9 1-6.8 1-30.9.1-36.2-3-16.8-10.6-27-23.6-31.1-8-2.6-24.9-3.2-33.2-1.2zm27.1 9.9c3.6 1 11 6.5 11 8.1 0 .7.3 1.3.8 1.3 1.3 0 3.6 6.2 4.8 13 .5 3.3 1.7 15.2 1.6 16.7-.1.7-.2 3.9-.2 7-.1 7.7-2.4 18.1-4.9 23.2-2 3.8-7 8.6-8.6 8.1-.4-.1-1.1.3-1.4.8-.9 1.5-12.3 2.9-19.6 2.5-14.3-.8-21.3-6.2-25-19.3-2.5-8.9-2.5-33.9-.1-42 .9-3 1.7-6.1 1.8-6.8.1-.6.5-1.2 1-1.2.4 0 .8-.7.8-1.5 0-3 8.4-9.2 13.8-10.1 1.5-.3 2.8-.7 3.1-.9.6-.7 18.4.2 21.1 1.1zM1089 1194.4c-13.9 3.9-20.2 11.3-20.5 24.5-.4 17.5 8.5 24.6 37 29.7 1.7.3 4.8 1 7 1.6 2.2.7 4.3 1.1 4.8 1 .4-.1.7.2.7.8 0 .5.6 1 1.3 1 .6 0 2.6 1.2 4.2 2.6 2.8 2.4 3 3 3 9.8 0 19.2-11.7 23.3-51.2 18-3.1-.4-4.4-.2-4.8.8-.8 2.2-1.3 7.8-.6 7.9.3 0 1.3.2 2.1.3.8.2 4.4.7 8 1.1 3.6.4 7.4.9 8.5 1.1 3.5.7 26.3.7 27.4 0 .6-.4 2.3-1 3.8-1.2 1.5-.3 3.2-.9 3.9-1.5.6-.5 1.4-.6 1.7-.2.4.3.7.1.7-.5 0-.7.5-1.2 1-1.2 3.4 0 10.6-10.5 11.8-17 1-6 .2-15.1-1.6-19.3-2.2-4.9-8-9.9-13.2-11.2-.3 0-3-.8-6-1.8-4.9-1.5-15.4-4.1-21.9-5.3-1.3-.3-4.7-1.6-7.6-2.9-5.6-2.7-7.6-6.1-7.7-13.2-.1-11.3 7.6-16.6 23.7-16.4 8.6.1 11.1.3 25.3 1.6 3.4.3 6.3.2 6.3-.2.1-.4.2-1.9.3-3.3.1-1.4.5-3 .9-3.7.7-1.2-.8-1.7-8.8-2.9-7.7-1.1-35.2-1.1-39.5 0zM565.1 1195.5c-.4.5-1.6 3.9-2.5 7.5-.9 3.6-2.1 7.6-2.6 9-.8 2.3-3.2 10.5-6.2 20.5-.6 2.2-1.6 4.6-2.1 5.2-.5.7-.7 1.3-.4 1.3.3 0 .2 1.2-.3 2.7-3.7 12.1-7.3 24-7.5 24.8-.1.5-.7 2.3-1.3 3.8-.7 1.6-1.2 3.4-1.2 4.1 0 .8-.7 3.3-1.6 5.7-.9 2.4-1.7 4.8-1.8 5.4-.1.5-.5 1.6-.9 2.2-.5.7-.6 1.3-.3 1.3s.2 1.1-.3 2.3c-.9 2.3-.8 2.4 4.9 2.6l5.8.2 2-5.3c1-2.9 2.5-7.6 3.2-10.3.7-2.8 1.7-5.6 2.3-6.3.5-.6.6-1.2.2-1.2-.4 0-.3-.6.3-1.3.9-1 6.5-1.3 24.4-1.2h23.3l3.9 12.8 4 12.7h5.9c5.8 0 5.8 0 5.3-2.8-.3-1.5-2.4-8.6-4.6-15.7-2.3-7.2-4.3-13.5-4.4-14-.5-2.2-3.7-13.1-4.3-14.5-.3-.8-.7-2-.8-2.5-.2-.6-2-6.4-4-13-3.7-11.8-6.4-21-6.8-23-.2-.6-.5-1.5-.8-2-.3-.6-1.2-3.1-1.9-5.8-.7-2.6-1.8-5.1-2.4-5.4-1.7-1.1-25.7-.9-26.5.2zm19.4 13.8c.9 2.8 1.9 5.9 2.2 6.7.3.8.7 2 .9 2.7.1.7.9 3.4 1.7 6 .8 2.6 2.5 8.2 3.8 12.3 1.3 4.1 2.4 7.7 2.5 8 0 .3.3 1.2.7 2 .8 2.1 2.7 9.3 2.7 10.5 0 .7-7.2 1-20.5 1-11.3 0-20.5-.2-20.5-.6 0-.3.7-2.8 1.6-5.5 2.5-7.7 2.5-7.9 2.6-8.4 0-.3.9-3 2-6s2.1-6.4 2.4-7.5c.3-1.6 2.8-10.2 5.8-20 .2-.6.3-1.2.3-1.5-.1-1.5 2.6-5.1 3.6-4.7.7.2 2.1.1 3.2-.3 2.8-1 3.1-.7 5 5.3zM672.8 1195.1c-1.3.9-1.8 16.9-.5 16.9.5 0 .5.5.1 1.2-1.1 1.8-1.1 14.1-.1 15.5.6.8.6 1.3 0 1.3s-.8 1.2-.6 2.7c.2 1.6.4 3.2.3 3.8-.5 9.4-.4 12.2.3 13.2.5.7.6 1.3.1 1.3s-.9 2.2-.9 5c0 2.7.4 5 .8 5 .5 0 .5.6 0 1.2-1 1.7-1.1 6.9 0 9 .4 1 .4 1.8 0 1.8-.6 0-.9 15.3-.4 19.8.1.5 2.8 1 6.1 1.1 4.3.1 6-.2 6.1-1.1 0-.7.1-9.3.1-19l.1-17.7 7.6-.1c4.2-.1 8.3-.1 9.1-.1.8 0 4.4.1 8 .1h6.5l3.5 6.8c1.9 3.7 6.4 12.2 9.9 18.9l6.4 12.3h13.6l-6.1-11.8c-3.3-6.4-8-15.4-10.4-19.9-3.2-6.1-4-8.4-3.1-9.1.7-.6 1.6-1 2-1 .5 0 2.7-1.2 5-2.6 8-5.1 11.8-13.6 11.3-25.8-.4-10.6-2.2-15.3-8-21-2.7-2.6-5.1-4.6-5.4-4.3-.2.2-1.7-.2-3.3-1.1-1.6-.8-2.9-1.2-2.9-.9 0 .3-1 0-2.2-.6-2.5-1.3-51-2-53-.8zm51.3 11.1c4.8 2.1 8.9 6.3 9.6 9.9.3 1.6.9 3.1 1.2 3.4 1.2.7.2 12-1.4 15.7-1.6 4-6.2 7.9-11.1 9.6-1.8.6-11.1 1.1-20.8 1.2l-17.5.1v-19.3c.1-10.6 0-19.8-.1-20.3-.1-.6-.2-1.3-.1-1.6 0-.3 8.3-.5 18.4-.4 14 .1 19 .5 21.8 1.7zM938.9 1194.9c-.1.3-.2 16.8-.3 36.6-.2 36.6.3 42.6 3.7 49.1 2.5 4.8 9 10.1 13.9 11.3.4.1 2.2.7 4 1.2 1.8.6 4.4 1.2 5.8 1.4 3.4.6 20.5.6 22.1 0 .8-.2 2.7-.7 4.3-.9 4.4-.8 13.3-5.4 16.2-8.4 2.8-2.9 5.3-8 6.2-12.7.4-1.7.6-19.9.7-40.5v-37.5l-5.7-.1c-3.2-.1-5.8.2-5.9.7-.5 5-.3 17.9.3 19.6.4 1.3.4 2.3 0 2.3-.9 0-.7 13.3.2 14.9.4.6.4 1.1-.1 1.1-.4 0-.8 8.4-.8 18.8 0 17-.2 19.1-2.1 22.7-1.7 3.3-9.2 10-10.2 9.1-.1-.2-2.6.2-5.5.9-6.4 1.4-15.7 1-21.9-1.1-5.5-1.8-10.2-6.7-11.7-12.1-.7-2.3-1.1-17.9-1.1-40.3v-36.6h-6c-3.3-.1-6.1.2-6.1.5zM1193.8 1195.1c-.7.4-1 17.4-1 49.5v48.9l29.1.5c16.1.3 30 .2 30.9-.1.9-.4 2.4-.3 3.3.2 2.3 1.2 4.3-1.4 3.7-4.6-.3-1.4-.1-2.5.3-2.5.5 0 .6-.6.3-1.3-.4-1.1-5.9-1.4-27.9-1.3l-27.5.1v-36h21.3c11.6 0 21.9-.1 22.8-.3 1.1-.2 1.5-1.6 1.4-5l-.1-4.7H1205v-34.1l27.5.1h27.5v-4.8c0-3.8-.3-4.7-1.7-4.8-6.7-.5-63.7-.3-64.5.2zM1313.5 1194.9c-.3.2-.5 22.6-.5 49.8v49.3h30.4c31.7 0 32.6-.1 30.5-4.2-.6-1-.5-1.9.1-2.3.5-.3.7-1.2.4-1.9-.4-.9-2.2-1.4-5.5-1.4-2.7-.1-5.3-.3-5.8-.7-.5-.3-1.2-.1-1.5.4-.3.4-1.8.7-3.3.5-1.6-.2-4.2-.5-5.8-.7-1.7-.2-3.9-.1-5 .3-1 .4-3.6.3-5.7 0-2.1-.4-4-.4-4.3-.1-.2.4-1.9.6-3.7.4-1.8-.2-4.5-.4-5.9-.4h-2.7l.2-44.5c0-24.4-.1-44.4-.4-44.5-1.8-.4-11.2-.4-11.5 0z"/></svg>