<svg xmlns="http://www.w3.org/2000/svg" viewBox="70 70 884 426"><path fill="#0a0a0a" d="M281.7 200.6l-55.4-.1L239 160H398v40.5h-65.8v185.6h-50.5V200.6zm192.8 185.6h-49V219.9h49v166.3zm0-185.7h-49V160h49v40.5zm94.4 61.3v124.4h-49V219.9h48.6v9.3a98.2 98.2 0 0145.7-13.3c24.4 0 41.3 6.5 50.5 19.6 9.3 13.1 14 33.3 14 60.6v90h-49.1v-88.7c0-14.2-1.8-24.6-5.5-31.3-3.6-6.9-11-10.3-22-10.3-10 0-19.6 1.6-28.8 4.7l-4.4 1.3zm175 124.4L703 219.9h48.4l30.2 128.4h12.1l20.2-79.6L765.7 89h43.9L856 268.7 811.5 436H768l16-50h-40z"/><path fill="#f150a0" d="M210.1 268.7L258.3 89h-43.9L168 268.7 212.4 436H256l-45.9-167.4zM316.1 482.5l.3 4.7q-8.3 1.5-14.8 1.5t-10.6-1.6q-4-1.6-6.2-5t-3-7.8q-.9-4.5-.9-11 0-6.7.8-11.2 1-4.5 3-8 2.3-3.4 6.3-5 4-1.5 10.4-1.5t15 1.5l-.3 4.7q-8-1.3-14.3-1.3-8.8 0-11.7 4.8-2.8 4.6-2.8 16 0 5.7.5 9.1.6 3.5 2 6.3 1.6 2.7 4.5 4 3 1 8.5 1 5.7 0 13.3-1.2zm27.5 5.5h-6l15-49.7h13.5l15.2 49.7h-6.1l-4-12.8h-23.6l-4 12.8zm17.9-45h-4.2l-8.4 27.3h21l-8.4-27.3zm66.2 26h-15.6v19h-6.2v-49.7h20.5q8.7 0 13.1 3.6 4.5 3.7 4.5 11.5 0 11.5-10.1 14.4l10.6 20.2h-6.8l-10-19zm-15.6-5h14.3q11.3 0 11.3-10.3 0-10.5-11.3-10.5H412V464zm63-.6q0 10.9 3.2 15.7 3.2 4.7 12.3 4.7 9.2 0 12.3-4.6 3.2-4.7 3.2-15.7t-3.3-16q-3.2-5-12.3-5-8.9 0-12.2 5-3.2 5-3.2 15.9zm37.4.1q0 13.3-4.7 19.3t-17.2 6q-12.4 0-17-6.2-4.8-6-4.8-19.2 0-13.1 4.8-19.4 4.8-6.4 17-6.4t17 6.3q4.9 6.3 4.9 19.6zm33-25.2V473q0 10.7 12.9 10.7 6.7 0 10-2.5 3.5-2.6 3.5-8.2v-34.8h6v34.6q0 8.4-5 12-4.8 3.8-14.4 3.8-9.5 0-14.4-3.7-4.8-3.8-4.8-12v-34.7h6.2zm76.8 4q-12 0-12 8.2 0 4.5 2.8 6.3 2.8 1.6 11.1 3.3 8.5 1.7 12 4.4t3.5 8.9q0 15.3-17.6 15.3-5.9 0-14.6-1.3l-2.9-.3.6-4.6q10.9 1.3 16.6 1.3 11.8 0 11.8-10 0-4-2.7-5.8-2.5-1.8-9.6-3-9.4-1.8-13.3-4.6-3.9-2.9-3.9-9.5 0-13.4 17.8-13.4 5.9 0 14 1l2.7.4-.6 4.7q-11-1.2-15.7-1.2zM700 488h-33.6v-49.7h33.6v4.9h-27.5v17.1h22.7v4.9h-22.7v18H700v4.8zm57-5v5h-30.5v-49.7h6.1V483h24.3z"/></svg>